<svg width="2714" height="48" viewBox="0 0 2714 48" fill="none" xmlns="http://www.w3.org/2000/svg">
<path d="M0 5C0 2.23858 2.23858 0 5 0H25C27.7614 0 30 2.23858 30 5V25C30 27.7614 27.7614 30 25 30H5C2.23858 30 0 27.7614 0 25V5Z" fill="#814541"/>
<path d="M2684 22.5C2684 19.7386 2686.24 17.5 2689 17.5H2709C2711.76 17.5 2714 19.7386 2714 22.5V42.5C2714 45.2614 2711.76 47.5 2709 47.5H2689C2686.24 47.5 2684 45.2614 2684 42.5V22.5Z" fill="#814541"/>
<path d="M0 5C0 2.23858 2.23858 0 5 0H25C27.7614 0 30 2.23858 30 5V25C30 27.7614 27.7614 30 25 30H5C2.23858 30 0 27.7614 0 25V5Z" fill="#814541"/>
</svg>
